<svg width="20" height="16" viewBox="0 0 20 16" fill="none" xmlns="http://www.w3.org/2000/svg">
<mask id="mask0_2616_232" style="mask-type:luminance" maskUnits="userSpaceOnUse" x="0" y="0" width="20" height="16">
<path d="M18.5714 0.857117H1.42857C0.639593 0.857117 0 1.49671 0 2.28569V13.7143C0 14.5032 0.639593 15.1428 1.42857 15.1428H18.5714C19.3604 15.1428 20 14.5032 20 13.7143V2.28569C20 1.49671 19.3604 0.857117 18.5714 0.857117Z" fill="white"/>
</mask>
<g mask="url(#mask0_2616_232)">
<path d="M18.5713 1.03571H1.42847C0.738111 1.03571 0.178467 1.59535 0.178467 2.28571V13.7143C0.178467 14.4046 0.738111 14.9643 1.42847 14.9643H18.5713C19.2617 14.9643 19.8213 14.4046 19.8213 13.7143V2.28571C19.8213 1.59535 19.2617 1.03571 18.5713 1.03571Z" fill="white" stroke="#F5F5F5" stroke-width="14.2857"/>
<mask id="mask1_2616_232" style="mask-type:alpha" maskUnits="userSpaceOnUse" x="-7" y="-7" width="34" height="30">
<path d="M18.5713 1.03571H1.42847C0.738111 1.03571 0.178467 1.59535 0.178467 2.28571V13.7143C0.178467 14.4046 0.738111 14.9643 1.42847 14.9643H18.5713C19.2617 14.9643 19.8213 14.4046 19.8213 13.7143V2.28571C19.8213 1.59535 19.2617 1.03571 18.5713 1.03571Z" fill="white" stroke="white" stroke-width="14.2857"/>
</mask>
<g mask="url(#mask1_2616_232)">
<path d="M19.9999 0.857117H13.3333V15.1428H19.9999V0.857117Z" fill="#E43D4C"/>
<path fill-rule="evenodd" clip-rule="evenodd" d="M0 15.1428H6.66666V0.857117H0V15.1428Z" fill="#1BB65D"/>
</g>
</g>
</svg>
